# xmcd
#
# Track frame offsets: 
#        150
#        15407
#        31376
#        53337
#        69813
#        87427
#        103604
#        120108
#        136597
#        155192
#        170829
#        192515
#        211467
#        230148
#        247643
#        261586
#        274679
#        295922
#        314171
#        335432
#
# Disc length: 4710 seconds
#
# Revision: 0
# Processed by: cddbd v1.5PL3 Copyright (c) Steve Scherf et al.
# Submitted via: ExactAudioCopy v0.95a5
#
DISCID=1e126414
DTITLE=Shania Twain - Come On Over
DYEAR=1900
DGENRE=Pop
TTITLE0=You're Got Away (Nothing Hill Remix)
TTITLE1=You're Still The One
TTITLE2=From This Moment On
TTITLE3=When
TTITLE4=Man I Feel Like A Woman
TTITLE5=Don't Be Stupid (You Know I Love You
TTITLE6=That Don't Impress Me Much
TTITLE7=Black Eyes, Blue Tears
TTITLE8=I Won't Leave You Lonely
TTITLE9=I'm Holding On To Love (To Save My Life)
TTITLE10=The Woman In Me (Need The Man In You)
TTITLE11=Home Ain't Where His Heart Is (Anymore)
TTITLE12=Any Man Of Mine
TTITLE13=God Bless The Child
TTITLE14=No One Need To Know
TTITLE15=Come On Over
TTITLE16=From This Moment On (Guest Bryan White) 
TTITLE17=You're Still The One (Soul Solution Dance Radio Mix)
TTITLE18=Don't Be Stupid (You Know I Love You) - Extended dance mix
TTITLE19=That Don't Impress Me Much (UK dance mix)
EXTD=
EXTT0=
EXTT1=
EXTT2=
EXTT3=
EXTT4=
EXTT5=
EXTT6=
EXTT7=
EXTT8=
EXTT9=
EXTT10=
EXTT11=
EXTT12=
EXTT13=
EXTT14=
EXTT15=
EXTT16=
EXTT17=
EXTT18=
EXTT19=
PLAYORDER=
